<svg width="423" height="428" viewBox="0 0 423 428" fill="none" xmlns="http://www.w3.org/2000/svg">
<path d="M14.7678 298.046C15.8781 296.836 24.6461 284.836 49.1662 282.099C53.1649 281.653 55.3484 279.291 55.5338 275.296L55.0943 266.967C55.0733 262.705 61.3578 257.522 65.183 266.441C69.3557 274.232 68.5232 274.013 74.1061 274.421C82.4806 275.034 87.9556 277.109 84.7814 281.997C82.4577 284.282 69.7544 284.531 71.1705 291.241C73.2572 301.13 72.456 297.721 72.2513 296.624L72.9974 301.436C72.9974 301.436 76.4178 318.39 75.503 322.3C74.5883 326.21 74.4348 332.034 70.413 336.434C66.3912 340.834 60.9377 348.231 48.1937 346.134C35.4497 344.037 29.9711 339.381 29.9711 339.381C29.9711 339.381 20.0409 332.744 16.0042 327.16C13.4291 323.857 8.60673 314.904 9.91829 305.513C12.1718 300.542 13.6576 299.255 14.7678 298.046Z" fill="#D2B895"/>
<path d="M49.1662 282.099C24.6461 284.836 15.8781 296.836 14.7678 298.046C13.6576 299.255 12.1718 300.542 9.91829 305.513C8.60673 314.904 13.4291 323.857 16.0042 327.16C20.0409 332.744 29.9711 339.381 29.9711 339.381C29.9711 339.381 35.4497 344.037 48.1937 346.134C60.9377 348.231 66.3912 340.834 70.413 336.434C74.4348 332.034 74.5883 326.21 75.503 322.3C76.4178 318.39 72.9974 301.436 72.9974 301.436L72.2093 296.353C72.2147 296.679 73.5144 302.349 71.1705 291.241C69.7544 284.531 82.4577 284.282 84.7814 281.997C87.9556 277.109 82.4806 275.034 74.1061 274.421C68.5232 274.013 69.3557 274.232 65.183 266.441C61.3578 257.522 55.0733 262.705 55.0943 266.967L55.5338 275.296C55.3484 279.291 53.1649 281.653 49.1662 282.099Z" stroke="#B8A183" stroke-width="2"/>
<path d="M43.6598 317.803C44.0931 317.228 44.2912 316.67 44.2542 316.128C44.2171 315.587 43.9516 314.902 43.4577 314.073C42.9637 313.244 42.5271 312.453 42.1478 311.699C41.7686 310.946 41.5086 310.208 41.3681 309.485C41.2275 308.763 41.2355 308.056 41.3921 307.364C41.5486 306.671 41.9038 305.957 42.4579 305.222C43.3849 303.992 44.5622 303.293 45.99 303.125C47.4232 302.949 48.8807 303.317 50.3625 304.228L52.0986 301.925L53.8347 303.233L52.0657 305.58C53.2497 306.781 53.8801 308.117 53.9569 309.591C54.0466 311.062 53.5703 312.489 52.5281 313.872L48.8375 311.091C49.408 310.334 49.7012 309.642 49.7172 309.015C49.7332 308.388 49.4719 307.871 48.9332 307.465C48.4528 307.103 47.9627 306.974 47.463 307.077C46.9761 307.178 46.5324 307.494 46.132 308.025C45.7261 308.564 45.5553 309.108 45.6197 309.659C45.6895 310.202 45.9532 310.875 46.4108 311.676C46.8738 312.47 47.2859 313.249 47.6469 314.011C48.0207 314.772 48.2779 315.514 48.4184 316.236C48.559 316.958 48.5555 317.675 48.4081 318.385C48.2606 319.096 47.9099 319.819 47.3559 320.554C46.4179 321.799 45.256 322.515 43.8701 322.704C42.4915 322.897 41.0723 322.547 39.6123 321.652L37.9585 323.847L36.2224 322.539L37.8845 320.333C36.4238 318.97 35.6131 317.509 35.4526 315.95C35.3049 314.389 35.7987 312.855 36.9342 311.348L40.6138 314.121C39.9885 314.951 39.6933 315.721 39.7281 316.432C39.7757 317.142 40.138 317.751 40.815 318.261C41.3099 318.634 41.8091 318.782 42.3124 318.705C42.8212 318.621 43.2703 318.32 43.6598 317.803Z" fill="#FDD05D"/>
<path d="M65 292.5C64.6 287.7 76.0002 280.5 76.0002 280.5" stroke="#B8A183"/>
<path d="M60.5 275C59.7 285.4 54.1667 287.333 51.5 287" stroke="#B8A183"/>
<path d="M69.5 278.5C64.5 278 59.5 288.5 60 293" stroke="#B8A183"/>
<path d="M55.5 280C45.5 274.5 68.5 287.5 68.5 287.5C68.5 287.5 76.5 292.5 70 288.5" stroke="#FDD05D" stroke-width="5"/>
<path d="M67.5 310C69.0001 329 52.0001 344 42 338.5" stroke="#B8A183"/>
<path d="M19.1766 311.457C16.2268 315.265 20.674 316.801 23.2663 317.094" stroke="#B8A183"/>
<path d="M45.4999 291.5C39.9999 288.5 29.1667 295.167 30.5 295.5" stroke="#B8A183"/>
<circle cx="365.5" cy="68.5" r="2.5" fill="black"/>
<ellipse cx="210" cy="406.5" rx="135" ry="21.5" fill="#C4C4C4"/>
<path d="M235 272.904C275.252 377.59 262.247 408.661 276 404.133C290.063 399.503 320.5 411.133 297.5 404.133" stroke="black" stroke-width="8"/>
<path d="M196.312 280.976C226.283 382.316 112.965 343.779 114.868 358.133C115.991 366.604 128.543 403.368 121.874 383.355" stroke="black" stroke-width="8"/>
<path d="M306.5 158C364.1 104 360.833 70.8333 352 61" stroke="black" stroke-width="8"/>
<path d="M225.292 295.036H200.926C147.64 295.036 104.446 238.608 104.446 169C104.446 99.3917 147.64 42.964 200.926 42.964H221.074L225.292 295.036Z" fill="#E4AF18"/>
<path d="M209.754 46.9719H176.939C171.369 48.8345 165.983 51.2908 160.849 54.3576H193.898C198.968 51.33 204.258 48.8289 209.754 46.9719Z" fill="#C49214"/>
<path d="M177.715 66.642H144.663C141.943 69.1991 139.325 71.9271 136.826 74.8315H169.876C172.377 71.9271 174.996 69.1991 177.715 66.642Z" fill="#C49214"/>
<path d="M158.098 91.2078H125.046C123.453 93.8573 121.929 96.5825 120.501 99.3973H153.55C154.981 96.5825 156.505 93.8573 158.098 91.2078Z" fill="#C49214"/>
<path d="M146.52 115.774H113.471C112.513 118.454 111.63 121.185 110.815 123.963H143.865C144.68 121.185 145.565 118.454 146.52 115.774Z" fill="#C49214"/>
<path d="M140.033 140.339H106.984C106.502 143.039 106.079 145.765 105.735 148.529H138.784C139.129 145.765 139.554 143.039 140.033 140.339Z" fill="#C49214"/>
<path d="M137.499 169C137.499 167.628 137.543 166.269 137.577 164.905H104.528C104.494 166.269 104.446 167.628 104.446 169C104.446 170.372 104.491 171.731 104.525 173.095H137.574C137.543 171.731 137.499 170.372 137.499 169Z" fill="#C49214"/>
<path d="M138.784 189.471H105.735C106.079 192.233 106.502 194.961 106.984 197.66H140.033C139.554 194.961 139.129 192.235 138.784 189.471Z" fill="#C49214"/>
<path d="M143.865 214.037H110.815C111.63 216.815 112.513 219.546 113.471 222.226H146.523C145.565 219.546 144.68 216.815 143.865 214.037Z" fill="#C49214"/>
<path d="M153.55 238.603H120.501C121.932 241.418 123.455 244.143 125.046 246.792H158.098C156.505 244.143 154.981 241.418 153.55 238.603Z" fill="#C49214"/>
<path d="M169.879 263.168H136.829C139.328 266.073 141.943 268.801 144.666 271.358H177.718C174.996 268.801 172.377 266.073 169.879 263.168Z" fill="#C49214"/>
<path d="M192.111 282.584L160.846 283.642C166.044 286.749 171.5 289.227 177.144 291.098H209.955C203.746 289.017 197.775 286.152 192.111 282.584Z" fill="#C49214"/>
<path d="M221.074 295.036C274.358 295.036 317.554 238.608 317.554 169C317.554 99.3922 274.358 42.964 221.074 42.964C167.791 42.964 124.595 99.3922 124.595 169C124.595 238.608 167.791 295.036 221.074 295.036Z" fill="#FFD949"/>
<path d="M221.06 267.028C262.503 267.028 296.1 223.139 296.1 169C296.1 114.861 262.503 70.972 221.06 70.972C179.618 70.972 146.021 114.861 146.021 169C146.021 223.139 179.618 267.028 221.06 267.028Z" fill="#E4AF18"/>
<path d="M212 150.442C198.065 138.57 196.758 141.251 185 156" stroke="black" stroke-width="8" stroke-linecap="round"/>
<path d="M262 143.442C248.065 131.57 246.758 134.251 235 149" stroke="black" stroke-width="8" stroke-linecap="round"/>
<path d="M261.865 165L195 177.115C195.863 179.758 201.471 189.229 211.177 195.837C216.21 198.407 228.648 202.445 238.139 198.04C250.002 192.533 260.202 178.402 260.787 176.013C261.865 171.608 262.225 167.203 261.865 165Z" fill="black" stroke="black"/>
<path d="M241 188.5C246.2 190.1 244.167 193.833 243.5 195C241.098 196.696 238.061 198.313 234.5 199.5C227 202 215.5 198 211.399 196C208.899 194.5 203.2 190.7 204 189.5C205 188 218 186.5 223.5 186C229 185.5 234.5 186.5 241 188.5Z" fill="#DA4343" stroke="#DA4343"/>
<path d="M120.524 193.068C32.4967 230.022 42.0476 267.402 57.8264 281.472" stroke="black" stroke-width="8"/>
<path d="M52.8475 279C52.9957 284.515 61.6864 293.187 56.1698 286.676" stroke="black" stroke-width="5"/>
<path d="M55.8475 275C56.2388 280.044 65.9212 288.333 59.7326 282.152" stroke="black" stroke-width="5"/>
<path d="M54 274.67C56.563 279.032 70 277 62 277.5" stroke="black" stroke-width="5"/>
<rect x="332" y="43.0579" width="77" height="33" rx="4" transform="rotate(-34 332 43.0579)" fill="#62AB6A"/>
<rect x="335.74" y="42.3443" width="71" height="29.8571" rx="3.5" transform="rotate(-34 335.74 42.3443)" stroke="#54925A"/>
<circle cx="360.574" cy="44.2901" r="4" transform="rotate(-34 360.574 44.2901)" fill="#185C1F" fill-opacity="0.65"/>
<circle cx="387.103" cy="26.3959" r="4" transform="rotate(-34 387.103 26.3959)" fill="#185C1F" fill-opacity="0.65"/>
<path d="M378.368 36.6369C377.966 36.0411 377.417 35.6811 376.721 35.557C376.031 35.4286 375.079 35.5334 373.865 35.8715C372.202 36.381 370.826 36.5131 369.737 36.2676C368.65 36.0113 367.754 35.3618 367.051 34.319C366.335 33.2568 366.055 32.1781 366.211 31.083C366.374 29.9836 366.953 29.0043 367.947 28.1452L366.512 26.0175L367.96 25.0411L369.401 27.1785C370.59 26.5935 371.743 26.48 372.861 26.838C373.985 27.1916 374.995 28.0323 375.891 29.3601L374.103 30.5658C373.487 29.6526 372.781 29.0735 371.984 28.8286C371.188 28.5838 370.42 28.7103 369.682 29.2084C368.911 29.7282 368.457 30.3266 368.32 31.0034C368.179 31.6737 368.348 32.3651 368.829 33.0775C369.274 33.7382 369.844 34.1219 370.538 34.2286C371.234 34.3245 372.184 34.2024 373.387 33.8622C374.592 33.5111 375.6 33.3443 376.413 33.3615C377.228 33.368 377.937 33.5396 378.542 33.8766C379.152 34.2091 379.689 34.7187 380.152 35.4052C380.89 36.4998 381.154 37.6034 380.944 38.7162C380.739 39.8245 380.086 40.84 378.984 41.7625L380.236 43.6181L378.798 44.588L377.546 42.7323C376.267 43.4348 375.033 43.6452 373.844 43.3634C372.657 43.0708 371.631 42.2833 370.766 41.0009L372.564 39.7886C373.171 40.6889 373.875 41.2224 374.675 41.3893C375.476 41.5561 376.31 41.3468 377.178 40.7614C378.026 40.1891 378.556 39.5351 378.766 38.7995C378.977 38.0638 378.844 37.3429 378.368 36.6369Z" fill="#185C1F"/>
<rect x="345" y="36" width="77" height="33" rx="4" fill="#62AB6A"/>
<rect x="348.5" y="37.5" width="71" height="29.8571" rx="3.5" stroke="#54925A"/>
<circle cx="368" cy="53" r="4" fill="#185C1F" fill-opacity="0.65"/>
<circle cx="400" cy="53" r="4" fill="#185C1F" fill-opacity="0.65"/>
<path d="M387.031 56.6055C387.031 55.8867 386.777 55.2812 386.27 54.7891C385.77 54.2969 384.922 53.8516 383.727 53.4531C382.062 52.9453 380.848 52.2852 380.082 51.4727C379.324 50.6523 378.945 49.6133 378.945 48.3555C378.945 47.0742 379.316 46.0234 380.059 45.2031C380.809 44.3828 381.836 43.8945 383.141 43.7383V41.1719H384.887V43.75C386.199 43.9297 387.219 44.4805 387.945 45.4023C388.68 46.3242 389.047 47.5859 389.047 49.1875H386.891C386.891 48.0859 386.629 47.2109 386.105 46.5625C385.582 45.9141 384.875 45.5898 383.984 45.5898C383.055 45.5898 382.344 45.832 381.852 46.3164C381.359 46.793 381.113 47.4609 381.113 48.3203C381.113 49.1172 381.371 49.7539 381.887 50.2305C382.41 50.6992 383.266 51.1289 384.453 51.5195C385.648 51.9023 386.578 52.3281 387.242 52.7969C387.914 53.2578 388.406 53.7969 388.719 54.4141C389.039 55.0312 389.199 55.7539 389.199 56.582C389.199 57.9023 388.801 58.9648 388.004 59.7695C387.215 60.5742 386.105 61.0508 384.676 61.1992V63.4375H382.941V61.1992C381.488 61.0664 380.348 60.5508 379.52 59.6523C378.699 58.7461 378.289 57.5195 378.289 55.9727H380.457C380.457 57.0586 380.742 57.8945 381.312 58.4805C381.883 59.0664 382.691 59.3594 383.738 59.3594C384.762 59.3594 385.566 59.1133 386.152 58.6211C386.738 58.1289 387.031 57.457 387.031 56.6055Z" fill="#185C1F"/>
<rect x="338.725" y="39.4331" width="77" height="33" rx="4" transform="rotate(-19 338.725 39.4331)" fill="#62AB6A"/>
<rect x="342.523" y="39.712" width="71" height="29.8571" rx="3.5" transform="rotate(-19 342.523 39.712)" stroke="#54925A"/>
<circle cx="366.007" cy="48.0189" r="4" transform="rotate(-19 366.007 48.0189)" fill="#185C1F" fill-opacity="0.65"/>
<circle cx="396.264" cy="37.6007" r="4" transform="rotate(-19 396.264 37.6007)" fill="#185C1F" fill-opacity="0.65"/>
<path d="M385.175 45.2319C384.941 44.5523 384.504 44.0625 383.864 43.7624C383.231 43.4598 382.284 43.3148 381.024 43.3272C379.286 43.3888 377.922 43.1601 376.934 42.6412C375.95 42.1123 375.253 41.2532 374.844 40.0639C374.427 38.8524 374.436 37.7381 374.87 36.7208C375.312 35.701 376.125 34.9049 377.307 34.3324L376.472 31.9058L378.123 31.3373L378.962 33.775C380.262 33.5176 381.405 33.7064 382.392 34.3415C383.387 34.9741 384.145 36.0475 384.666 37.5618L382.627 38.2638C382.269 37.2223 381.736 36.4802 381.03 36.0375C380.324 35.5948 379.55 35.5184 378.708 35.8084C377.829 36.111 377.236 36.5715 376.928 37.1897C376.618 37.8006 376.603 38.5123 376.882 39.3248C377.142 40.0783 377.593 40.5964 378.236 40.8791C378.883 41.1519 379.832 41.2797 381.082 41.2624C382.337 41.2352 383.354 41.3351 384.135 41.5621C384.92 41.7792 385.561 42.1286 386.057 42.6105C386.561 43.0897 386.948 43.7209 387.217 44.5039C387.647 45.7523 387.617 46.8866 387.125 47.9069C386.641 48.9246 385.747 49.7364 384.444 50.3422L385.172 52.4586L383.533 53.0232L382.804 50.9069C381.387 51.2544 380.14 51.1382 379.065 50.5583C377.994 49.9685 377.207 48.9423 376.703 47.4797L378.753 46.7739C379.107 47.8007 379.649 48.4982 380.379 48.8666C381.109 49.2349 381.968 49.2487 382.958 48.9078C383.926 48.5746 384.607 48.08 385 47.4238C385.394 46.7677 385.452 46.0371 385.175 45.2319Z" fill="#185C1F"/>
<path d="M357 71C360.934 64.8441 359.868 48.8204 359.868 59.684" stroke="black" stroke-width="6"/>
</svg>
